<svg xmlns="http://www.w3.org/2000/svg" viewBox="0 0 128 128" role="img" aria-labelledby="mineTitle">
  <title id="mineTitle">Minesweeper icon</title>
  <rect width="128" height="128" rx="24" fill="#1f2937"/>
  <rect x="20" y="20" width="88" height="88" rx="14" fill="#d1d5db"/>
  <g fill="#9ca3af">
    <rect x="28" y="28" width="22" height="22" rx="4"/>
    <rect x="54" y="28" width="22" height="22" rx="4"/>
    <rect x="80" y="28" width="20" height="22" rx="4"/>
    <rect x="28" y="54" width="22" height="22" rx="4"/>
    <rect x="80" y="54" width="20" height="22" rx="4"/>
    <rect x="28" y="80" width="22" height="20" rx="4"/>
    <rect x="54" y="80" width="22" height="20" rx="4"/>
    <rect x="80" y="80" width="20" height="20" rx="4"/>
  </g>
  <circle cx="65" cy="65" r="14" fill="#111827"/>
  <g stroke="#111827" stroke-width="4" stroke-linecap="round">
    <line x1="65" y1="41" x2="65" y2="31"/>
    <line x1="65" y1="99" x2="65" y2="89"/>
    <line x1="41" y1="65" x2="31" y2="65"/>
    <line x1="99" y1="65" x2="89" y2="65"/>
    <line x1="48" y1="48" x2="40" y2="40"/>
    <line x1="82" y1="82" x2="90" y2="90"/>
    <line x1="82" y1="48" x2="90" y2="40"/>
    <line x1="48" y1="82" x2="40" y2="90"/>
  </g>
  <path d="M94 26v30l-8-6-8 6V26z" fill="#ef4444"/>
</svg>
